<?xml version="1.0" encoding="utf-8"?>
<!-- Generator: Adobe Illustrator 19.0.0, SVG Export Plug-In . SVG Version: 6.00 Build 0)  -->
<svg version="1.1" id="Layer_1" xmlns="http://www.w3.org/2000/svg" xmlns:xlink="http://www.w3.org/1999/xlink" x="0px" y="0px"
	 viewBox="0 0 3078.95 1200" enable-background="new 0 0 3078.95 1200" xml:space="preserve">
<g>
	<defs>
		<rect id="SVGID_1_" width="3078.946" height="1200"/>
	</defs>
	<clipPath id="SVGID_2_">
		<use xlink:href="#SVGID_1_"  overflow="visible"/>
	</clipPath>
	<path clip-path="url(#SVGID_2_)" d="M2518.938,133.734c-24.789,14.875-107.104,70.911-133.396,101.555
		c-26.292,30.642-48.329,60.192-57.971,52.087c-9.642-8.104-32.782-22.265-58.72-29.659c-25.938-7.394-38.637-5.038-31.902-1.779
		c6.732,3.258,50.919,15.185,59.799,20.916c8.88,5.73,25.184,11.518,10.272,12.326c-14.91,0.808-76.214,21.097-89.19,40.609
		c0,0,90.407-44.701,105.468-27.86c15.063,16.841,11.561,73.223,12.871,94.203c1.31,20.98-0.953,33.353-13.626,28.748
		c-12.673-4.604-64.945-20.349-63.235,34.543c1.709,54.892,29.314,78.186,48.812,78.164c19.496-0.021,43.103-12.286,42.232,6.684
		c-0.87,18.969,4.296,97.312-7.438,105.77c-11.735,8.459-91.096,47.901-113.584,57.461c-22.489,9.558-28.519,16.097-14.023,27.792
		s59.546,31.108,43.728,44.85c-15.82,13.741-36.884,29.435-28.205,31.437c8.679,2.003,14.051-1.796,36.189,0.225
		c22.138,2.021,44.236-1.995,39.866,13.943c-4.371,15.938-1.357,25.898,5.214,31.466c6.57,5.568-7.222,3.67-0.636,22.235
		c6.586,18.565,20.716,28.844,39.159,30.604c18.442,1.763,15.249,7.572,16.455,23.438c1.204,15.867-0.272,23.653,24.67,25.407
		s57.696-1.977,67.103,2.862c9.407,4.84,9.344,5.763,7.178,16.751s-13.584,67.741-52.898,105.359
		c-39.314,37.617-117.067,100.384-72.319,84.498c44.749-15.884,188.938-53.088,210.443-55.288
		c21.507-2.201,16.979-10.41,27.087-28.73c10.105-18.321,33.133-48.729,34.15-23.593c1.018,25.138-7.665,49.591,22.389,51.241
		c30.057,1.648,70.468,1.242,85.645,3.237c15.177,1.996,14.911-0.808,12.977-19.511c-1.936-18.703-0.553-51.562,11.577-32.605
		c12.127,18.955,15.804,32.676,27.47,51.598s14.737,21.46,44.037,27.234c29.301,5.773,133.181,33.501,153.042,34.898
		c19.86,1.397,24.35,3.57,15.729-5.855c-8.62-9.426-68.598-73.985-82.581-99.57c-13.982-25.584-52.09-90.927-20.715-88.256
		c31.374,2.67,78.853,7.402,90.497,6.828c11.645-0.574,11.279-1.992,8.657-17.492c-2.624-15.503-5.734-24.078-5.845-35.689
		c-0.113-11.612-5.955-14.345,6.913-12.512c12.867,1.833,42.16,1.109,53.128-16.223c10.967-17.332,19.907-45.481,4.457-56.779
		c-15.451-11.298-28.587-15.935-28.587-15.935s17.545-5.266,31.395-10.789c13.85-5.525,29.781-7.653,18.097-13.117
		c-11.685-5.463-27.468-18.643-15.798-26.176c11.671-7.534,43.057-24.822,31.438-31.21c-11.621-6.387-94.795-44.728-94.795-44.728
		s17.952-24.267,27.963-41.2c10.01-16.936,17.289-87.44,6.345-110.026c0,0,39.477-39.927,46.307-71.01
		c6.826-31.084,10.771-73.974,9.938-81.923c-0.833-7.95-3.012-9.96-13.272-9.288c-10.259,0.67-70.523,6.18-84.016,6.623
		c-13.492,0.444-14.188-2.854-19.25-16.671c-5.063-13.817-32.072-65.382-35.788-85.139c-3.717-19.757-18.688-44.481-18.688-44.481
		s45.567-20.933,59.33-45.03c13.763-24.097,22.795-60.132-7.189-89.162c-29.986-29.031-151.537-76.105-253.545-51.251
		C2597.739,95.644,2533.476,125.008,2518.938,133.734"/>
	<path clip-path="url(#SVGID_2_)" fill="#F49C25" d="M2939.86,148.019c5.163,8.171,21.981,26.868-8.027,60.705
		c-19.612,22.11-34.095,33.075-108.805,42.943c-43.572,5.755-60.109-3.299-60.109-3.299s8.121-49.241-44.483-73.682
		c-49.443-22.973-41.29,31.151-28.118,50.009c16.024,22.943,53.28,34.383,53.28,34.383s-7.991,31.001-70.559,33.099
		c-63.24,2.12-68.359-4.807-68.359-4.807s13.129-28.289-8.703-54.456c-31.678-37.969-70.772-46.687-84.902-20.376
		c-15.489,28.841,30.959,74.604,67.52,82.745c0,0,2.521,29.42-84.854,25.131c-87.376-4.288-100.657-10.179-126.433-17.246
		c-22.771-6.243-13.009-8.365,33.718-57.042c42.572-44.352,143.113-114.333,232.456-137.293
		C2829.26,58.521,2924.825,124.216,2939.86,148.019"/>
	<path clip-path="url(#SVGID_2_)" fill="#F49C25" d="M2747.312,245.877c0,0-3.135-27.279-13.909-39.812
		c-10.336-12.023-34.895-31.852-38.237-10.736C2691.824,216.446,2719.6,243.928,2747.312,245.877"/>
	<path clip-path="url(#SVGID_2_)" fill="#F49C25" d="M2587.785,283.397c0,0,14.225-24.065-3.875-43.904
		c-15.889-17.415-33.185-30.661-52.975-25.558c-18.438,4.754-2.305,39.491,14.666,48.857
		C2567.086,274.648,2587.785,283.397,2587.785,283.397"/>
	<path clip-path="url(#SVGID_2_)" fill="#FCDACC" d="M2909.18,326.887c0,0-12.762-33.407-16.184-47.091
		c-5.434-21.734-3.424-23.913-26.18-17.159c-22.754,6.755-47.391,13.842-73.125,10.175c-25.736-3.666-35.305-6.196-35.305-6.196
		s-8.885,20.727-37.078,32.205c-31.874,12.977-56.296,15.072-88.83,9.071c-34.797-6.419-28.501-8.504-43.634,4.357
		c-15.134,12.861-40.581,31.495-110.819,27.019c-78.561-5.006-84.261-8.688-102.845-16.051c-18.517-7.337-26.083-9.592-25.097,7.054
		c0.798,13.489,4.951,94.574,7.724,94.769c2.771,0.195,227.646-4.347,568.646-20.351
		C2950.203,403.575,2935.114,392.521,2909.18,326.887"/>
	<path clip-path="url(#SVGID_2_)" fill="#FCDACC" d="M2831.368,515.9c0,0,5.911-4.845,10.06-11.051
		c4.15-6.207,1.642-5.403-23.429-5.671c-46.69-0.497-48.743-6.522-52.423,6.216c-2.109,7.298-15.753,41.278-25.943,47.687
		c-13.273,8.349-10.52,16.381,0.687,25.422c9.664,7.797,93.606,63.832,80.013,41.523c-14.846-24.361-29.864-50.565-23.582-60.704
		C2803.033,549.186,2831.368,515.9,2831.368,515.9"/>
	<path clip-path="url(#SVGID_2_)" fill="#FCDACC" d="M2791.542,840.183c0,0-406.104-187.613-419.506-195.054
		c-13.402-7.441-6.5-30.782-8.125-69.269c-1.409-33.36,3.452-71.952-8.184-61.845c-16.313,14.169-65.341,13.009-77.108-12.386
		c-12.897-27.828-21.622-75.892,30.932-70.235c12.439,1.339,26.941,19.533,39.12,24.567c10.639,4.398,4.902,0.738,5.802-3.304
		c2.035-9.141,5.236-3.62,50.735-2.003c29.392,1.045,28.995,20.433,39.026,49.768c8.197,23.96,35.832,71.855,81.016,95.759
		c105.913,56.03,160.413-1.715,160.413-1.715s23.217,49.286,38.397,66.136c15.181,16.849,36.418,35.166,58.113,39.981
		c20.415,4.531,10.577,9.317,5.536,13.697c-2.638,2.289-6.119,16.588,7.615,6.103c26.213-20.007,23.243-22.501,15.918-23.944
		c-7.324-1.443-30.223-5.838-39.929-13.021c-9.709-7.181-10.761-5.397-0.029-25.994s8.644-39.311,30.033-26.667
		c21.392,12.644,66.365,24.08,50.461,8.5c-19.396-19.003-43.838-67.448-44.307-73.979c-0.471-6.532,5.582,5.034,33.986,20.957
		c28.402,15.923,51.709,32.511,111.658,6.925c51.043-21.786,47.449-10.28,48.505,9.908c1.409,26.962,2.366,63.128-57.205,118.208
		C2892.784,769.015,2813.177,853.773,2791.542,840.183"/>
	<path clip-path="url(#SVGID_2_)" fill="#8DC4EF" d="M3014.095,425.706c-23.878,1.098-64.484,4.475-90.45,5.708
		c-51.23,2.431-39.198,1.884-49.23,20.21c-9.055,16.538-60.978,19.383-80.84,14.273c0,0-19.337,19.607,15.854,18.754
		c44.171-1.071,68.472-1.775,64.202,4.515c-24.338,35.851-49.17,46.168-38.24,55.332c39.889,33.44,169.65,49.528,198.947-70.023
		C3047.068,422.521,3042.033,424.421,3014.095,425.706"/>
	<path clip-path="url(#SVGID_2_)" fill="#8DC4EF" d="M2730.262,461.909c8.287-25.411-25.085-12.904-67.148-15.398
		c-67.047-3.976-57.996-0.365-63.29,15.508c-5.657,16.967-18.31,29.348-55.202,19.327c-53.219-14.457-29.693-33.188-59.709-28.8
		c-17.446,2.55-18.371,3.814-6.691,35.734c10.404,28.434,55.371,103.69,152.54,88.244
		C2713.057,563.441,2720.966,490.425,2730.262,461.909"/>
	<path clip-path="url(#SVGID_2_)" fill="#664CA2" d="M2980.845,828.122c0,0-8.269,3.133-16.347,5.813
		c-8.079,2.681-9.595,4.431-13.8-8.396c-4.202-12.829-16.183-47.092-17.706-51.841c-1.522-4.749-4.138-13.752,7.563-21.748
		c11.703-7.996,15.68,8.065,31.821,16.163c16.14,8.097,49.554,34.584,56.685,38.8c7.131,4.214,7.429,6.557-0.585,8.314
		C3020.461,816.983,2980.845,828.122,2980.845,828.122"/>
	<path clip-path="url(#SVGID_2_)" fill="#664CA2" d="M3032.073,876.285c0,0-3.839-11.41-6.351-15.3
		c-2.512-3.89-7.566-11.208-25.151-11.982c-17.584-0.771-28.142-2.441-39.845,5.554c-11.701,7.998-1.638,10.097,2.023,10.818
		c3.663,0.722,5.777,3.655,8.816,6.654c3.037,2.998,12.009,0.844,22.04,3.406c10.03,2.561,11.296,11.006-6.354,11.157
		c-17.648,0.151-22.332,0.75-22.332,0.75s2.857,18.769,7.118,24.174C2972.038,911.518,3038.654,921.308,3032.073,876.285"/>
	<path clip-path="url(#SVGID_2_)" fill="#664CA2" d="M2423.285,840.434c0,0-13.428-0.48-20.764,18.035
		c-15.306,38.629,44.271,30.499,61.456-2.641c22.242-42.896-32.515-78.873-50.146-92.183c-17.632-13.309-71.44-46.799-71.44-46.799
		s-28.868,27.677-43.731,41.019c-14.864,13.344-44.826,36.767-36.974,37.319c7.853,0.552,73.076,3.746,80.636,8.455
		c7.561,4.708-12.397,15.684-20.736,22.06c-8.34,6.375-10.563,13.801-3.733,15.674c7.392,2.026-5.155,11.706,5.37,13.838
		c10.527,2.134,51.38,4.233,53.683-2.104c8.813-6.497,10.45,3.211,24.091-12.54c13.641-15.752,12.995-21.985,9.885-30.558
		c-3.11-8.574-9.117-11.163-16.399-13.222c-7.282-2.061-11.938,2.563-16.071,4.128c-4.134,1.566-7.348-1.135-6.908-2.96
		c0.437-1.826,11.074-7.886,15.802-9.101c4.727-1.214,15.965-2.59,22.852,0.68c6.888,3.269,29.454,27.785,32.078,32.272
		c2.625,4.487,5.499,11.99,5.032,16.444s-3.967,12.408-6.074,15.975c-2.107,3.564-10.367,7.022-13.479,2.455
		c-4.207-6.176,9.322-16.517,9.455-20.068c0.365-9.567-6.534-11.02-9.575-9.028C2424.552,829.576,2423.285,840.434,2423.285,840.434
		"/>
	<path clip-path="url(#SVGID_2_)" fill="#664CA2" d="M2390.882,883.179c0,0-6.696-9.572-8.734-12.219
		c-3.401-4.415-7.196-3.29-19.399-1.362c-12.203,1.926-28.344,0.426-35.383,1.506c-7.039,1.079-8.959,4.194-0.306,13.157
		c8.653,8.965,27.388,16.773,55.366,9.153C2397.328,889.358,2390.882,883.179,2390.882,883.179"/>
	<path clip-path="url(#SVGID_2_)" fill="#FFFFFF" d="M2917.719,773.089c0,0,27.816,153.738,31.773,169.335
		c3.959,15.596,10.439,29.049-3.912,28.503c-14.35-0.545-371.166-27.973-398.086-26.604c-22.981,1.169-15.188-12.826-21.863-60.95
		c-3.78-27.261-6.467-106.033-6.807-121.037c-0.336-15.003-10.252-32.41,13.942-20.033
		c24.195,12.378,267.708,120.479,267.708,120.479S2859.522,819.59,2917.719,773.089"/>
	<path clip-path="url(#SVGID_2_)" fill="#FFFFFF" d="M2506.332,733.173c0,0,9.406,123.665,10.449,141.841
		c1.042,18.179,10.588,69.442-0.188,68.684c-7.135-0.502-88.722-1.289-121.118-2.64c-8.351-0.347-10.585-5.313-10.895-7.883
		c-2.931-24.342-11.882-24.661,44.821-38.932c15.346-3.861,39.97-24.55,47.109-40.628c9.392-21.154-10.825-57.563-20.903-68.002
		c-17.305-17.928-93.614-72.494-107.324-79.957c-11.329-6.167-10.93,1.087-15.33-1.078c-4.4-2.167-18.434-13.83-13.841-6.545
		c4.594,7.285,8.58,12.208,3.077,17.855c-5.503,5.648-36.261,44.795-49.298,38.773c-13.038-6.023-31.846-20.188-42.639-25.124
		c-10.793-4.936-13.424-7.134,17.912-19.317c25.29-9.835,101.471-54.599,115.688-45.553
		C2388.936,680.626,2506.332,733.173,2506.332,733.173"/>
	<path clip-path="url(#SVGID_2_)" fill="#FFFFFF" d="M2772.555,612.953c0,0-16.999-9.086-23.141-14.16
		c-6.141-5.074-10.754,1.101-12.908,5.358c-2.157,4.259-22.203,31.609-17.031,37.56c12.023,13.843,31.715,41.839,38.821,24.392
		c7.349-18.039,17.421-35.754,19.093-41.206C2779.062,619.445,2778.707,616.35,2772.555,612.953"/>
	<path clip-path="url(#SVGID_2_)" fill="#FFFFFF" d="M2732.245,585.518c0,0-11.498-14.212-16.342-11.825
		c-7.693,3.791-23.978,15.333-17.28,25.706c10.03,15.536,11.506,43.202,23.923,16.228
		C2734.004,590.734,2741.257,594.642,2732.245,585.518"/>
	<path clip-path="url(#SVGID_2_)" fill="#FFFFFF" d="M3043.277,756.564c0,0-47.564-21.622-56.106-26.4
		c-8.54-4.777-21.708-8.953-26.847-1.888c-5.139,7.065-10.441,11.334,2.845,19.695c13.284,8.36,47.61,32.901,54.772,36.655
		c7.163,3.751,8.88,2.372,22.247-10.019C3053.557,762.219,3057.723,763.172,3043.277,756.564"/>
</g>
<g>
	<defs>
		<rect id="SVGID_3_" width="3078.946" height="1200"/>
	</defs>
	<clipPath id="SVGID_4_">
		<use xlink:href="#SVGID_3_"  overflow="visible"/>
	</clipPath>
	<g clip-path="url(#SVGID_4_)">
		<text transform="matrix(1 0 0 1 -7.1768 474.064)" fill="#0080FF" font-family="'LeagueGothic'" font-size="533.9538px">PROGRAMMERS</text>
	</g>
	<g clip-path="url(#SVGID_4_)">
		<text transform="matrix(1 0 0 1 0 1194)" fill="#0080FF" font-family="'Tangerine'" font-size="1257.1117px">in</text>
	</g>
	<g clip-path="url(#SVGID_4_)">
		<text transform="matrix(1 0 0 1 734.0063 1194)" fill="#0080FF" font-family="'LeagueGothic'" font-size="799.7238px">PADUA</text>
	</g>
</g>
<g>
	<defs>
		<rect id="SVGID_5_" width="3078.946" height="1200"/>
	</defs>
	<clipPath id="SVGID_6_">
		<use xlink:href="#SVGID_5_"  overflow="visible"/>
	</clipPath>
	<g clip-path="url(#SVGID_6_)">
		<text transform="matrix(1 0 0 1 -7.1768 460.1538)" font-family="'LeagueGothic'" font-size="533.9538px">PROGRAMMERS</text>
	</g>
	<g clip-path="url(#SVGID_6_)">
		<text transform="matrix(1 0 0 1 0 1180.0898)" font-family="'Tangerine'" font-size="1257.1117px">in</text>
	</g>
	<g clip-path="url(#SVGID_6_)">
		<text transform="matrix(1 0 0 1 734.0063 1180.0898)" font-family="'LeagueGothic'" font-size="799.7238px">PADUA</text>
	</g>
</g>
</svg>
